<?xml version="1.0" encoding="UTF-8" standalone="no"?>
<svg
   xmlns:dc="http://purl.org/dc/elements/1.1/"
   xmlns:cc="http://creativecommons.org/ns#"
   xmlns:rdf="http://www.w3.org/1999/02/22-rdf-syntax-ns#"
   xmlns:svg="http://www.w3.org/2000/svg"
   xmlns="http://www.w3.org/2000/svg"
   xmlns:xlink="http://www.w3.org/1999/xlink"
   xmlns:sodipodi="http://sodipodi.sourceforge.net/DTD/sodipodi-0.dtd"
   xmlns:inkscape="http://www.inkscape.org/namespaces/inkscape"
   enable-background="new 0 0 512 512"
   id="Layer_1"
   version="1.1"
   viewBox="0 0 60 60"
   xml:space="preserve"
   sodipodi:docname="cloud.svg"
   inkscape:version="0.92.4 (5da689c313, 2019-01-14)"
   width="60"
   height="60"><metadata
     id="metadata29"><rdf:RDF><cc:Work
         rdf:about=""><dc:format>image/svg+xml</dc:format><dc:type
           rdf:resource="http://purl.org/dc/dcmitype/StillImage" /><dc:title></dc:title></cc:Work></rdf:RDF></metadata><defs
     id="defs27"><linearGradient
       inkscape:collect="always"
       id="linearGradient2402"><stop
         style="stop-color:#83afdd;stop-opacity:1;"
         offset="0"
         id="stop2398" /><stop
         style="stop-color:#83afdd;stop-opacity:0;"
         offset="1"
         id="stop2400" /></linearGradient><linearGradient
       inkscape:collect="always"
       xlink:href="#linearGradient2402"
       id="linearGradient2404"
       x1="82.108782"
       y1="14.03164"
       x2="85.957268"
       y2="14.03164"
       gradientUnits="userSpaceOnUse" /></defs><sodipodi:namedview
     pagecolor="#ffffff"
     bordercolor="#666666"
     borderopacity="1"
     objecttolerance="10"
     gridtolerance="10"
     guidetolerance="10"
     inkscape:pageopacity="0"
     inkscape:pageshadow="2"
     inkscape:window-width="1366"
     inkscape:window-height="705"
     id="namedview25"
     showgrid="false"
     inkscape:zoom="5.2149125"
     inkscape:cx="45.373361"
     inkscape:cy="14.280514"
     inkscape:window-x="-8"
     inkscape:window-y="-8"
     inkscape:window-maximized="1"
     inkscape:current-layer="Layer_1"
     showguides="true"
     inkscape:guide-bbox="true"><sodipodi:guide
       position="253.83051,416.54237"
       orientation="1,0"
       id="guide835"
       inkscape:locked="false" /><sodipodi:guide
       position="9.220339,252.20339"
       orientation="0,1"
       id="guide837"
       inkscape:locked="false" /><sodipodi:guide
       position="82.101695,47.966102"
       orientation="1,0"
       id="guide2380"
       inkscape:locked="false" /></sodipodi:namedview><circle
     style="fill:#468aca;fill-opacity:0.72522521;stroke:#4890c9;stroke-width:0;stroke-linecap:square;stroke-linejoin:miter;stroke-miterlimit:4;stroke-dasharray:none;stroke-dashoffset:0;stroke-opacity:0.95045054;paint-order:markers stroke fill"
     id="path2698"
     cy="29.815863"
     cx="29.992384"
     r="30" /><ellipse
     class="st1"
     cx="112.25423"
     cy="-2.1016948"
     id="circle8"
     style="fill:#f7f7f7;fill-opacity:1"
     r="9" /><g
     style="fill:#f7f7f7;fill-opacity:1;stroke:#83afdd;stroke-width:2.70000005;stroke-miterlimit:4;stroke-dasharray:none;stroke-opacity:1"
     id="g16"
     transform="matrix(0.60606061,0,0,0.60606061,66.563328,-12.831997)" /><path
     inkscape:connector-curvature="0"
     style="fill:#d8eaef;stroke-width:0.09908544;stroke:#e8e8e8;stroke-opacity:0.63921571"
     d="m 35.14277,19.888469 c -0.5096,-5.35012 -5.2621,-9.54312 -11.0491,-9.54312 -6.1273,0 -11.0939,4.69893 -11.0939,10.49701 0,0.56231 0.047,1.11461 0.1368,1.65235 v 0 c -3.8529002,0.45421 -6.8450002,3.81618 -6.8450002,7.89463 0,4.38761 3.4645,7.94557 7.7383002,7.94557 h 28.3671 c 3.1103,0 5.6299,-2.25024 5.6299,-5.02691 0,-2.50973 -2.06,-4.59092 -4.7533,-4.96626 v 0 c 0,-4.38909 -3.4482,-8.46407 -7.7221,-8.46407 -0.137,-10e-5 -0.2742,0.004 -0.4087,0.0108"
     id="path2" /><path
     inkscape:connector-curvature="0"
     style="fill:#ffffff;stroke-width:0.09908544;stroke:#e8e8e8;stroke-opacity:0.63921571"
     d="m 30.99087,19.888469 c -0.4363,-5.35012 -4.458,-9.62863 -9.3995,-9.275 -3.1082,0.22215 -8.5915,4.43081 -8.5915,10.22889 0,0.56231 0.1368,1.65235 0.1368,1.65235 -3.5750002,0.32133 -6.8450002,3.81618 -6.8450002,7.89463 0,4.38761 2.9659,7.94557 6.6246002,7.94557 h 24.2847 c 2.6628,0 4.8199,-2.25024 4.8199,-5.02691 0,-2.50973 -1.7636,-4.59092 -4.0694,-4.96626 v 0 c 0,-4.38909 -2.9518,-8.46407 -6.6107,-8.46407 -0.1173,-10e-5 -0.2349,0.004 -0.3499,0.0108 -1.9379,0.12177 -3.6549,1.24094 -4.8012,2.93778"
     id="path4" /><path
     inkscape:connector-curvature="0"
     style="fill:none;stroke:#e8e8e8;stroke-width:1.28811073;stroke-linecap:round;stroke-linejoin:round;stroke-miterlimit:10;stroke-opacity:0.63921571"
     d="m 35.14277,19.888469 c -0.5096,-5.35012 -5.2621,-9.54312 -11.0491,-9.54312 -6.1273,0 -11.0939,4.69893 -11.0939,10.49701 0,0.56231 0.047,1.11461 0.1368,1.65235 v 0 c -3.8529002,0.45421 -6.8450002,3.81618 -6.8450002,7.89463 0,4.38761 3.4645,7.94557 7.7383002,7.94557 h 28.3671 c 3.1103,0 5.6299,-2.25024 5.6299,-5.02691 0,-2.50973 -2.06,-4.59092 -4.7533,-4.96626 v 0 c 1e-4,-4.38919 -3.8569,-8.45327 -8.1308,-8.45327 -0.1372,0 0.1345,-0.007 0,0 -2.2636,0.12177 -4.2693,1.24094 -5.6083,2.93778"
     stroke-miterlimit="10"
     id="path6" /><path
     inkscape:connector-curvature="0"
     style="fill:#d8eaef;stroke-width:0.09908544;stroke:#e8e8e8;stroke-opacity:0.63921571"
     d="m 42.11937,23.292739 c -0.5096,-5.35031 -5.2622,-9.54321 -11.0491,-9.54321 -6.1274,0 -11.094,4.69903 -11.094,10.49711 0,0.56221 0.047,1.11461 0.1368,1.65225 v 0 c -3.8529,0.45421 -6.845,3.81618 -6.845,7.89473 0,4.3875 3.4645,7.94546 7.7383,7.94546 h 28.367 c 3.1104,0 5.63,-2.25013 5.63,-5.0269 0,-2.50973 -2.06,-4.59092 -4.7534,-4.96616 v 0 c 0,-4.38909 -3.4481,-8.46408 -7.7221,-8.46408 -0.1368,0 -0.2742,0.004 -0.4085,0.0108"
     id="path8" /><path
     inkscape:connector-curvature="0"
     style="fill:#ffffff;stroke-width:0.09908544;stroke:#e8e8e8;stroke-opacity:0.63921571"
     d="m 37.96737,23.292739 c -0.4362,-5.35031 -4.458,-9.62862 -9.3995,-9.27519 -3.1082,0.22235 -8.5915,4.43101 -8.5915,10.22909 0,0.56221 0.1368,1.65225 0.1368,1.65225 -3.5751,0.32143 -6.845,3.81618 -6.845,7.89473 0,4.3875 2.9659,7.94546 6.6247,7.94546 h 24.2847 c 2.6628,0 4.82,-2.25013 4.82,-5.0269 0,-2.50973 -1.7636,-4.59092 -4.0694,-4.96616 v 0 c 0,-4.38909 -2.952,-8.46408 -6.6107,-8.46408 -0.1175,0 -0.235,0.004 -0.3501,0.0108 -1.9379,0.12178 -3.655,1.24085 -4.8012,2.93769"
     id="path10" /><path
     inkscape:connector-curvature="0"
     style="fill:none;stroke:#e8e8e8;stroke-width:1.28811073;stroke-linecap:round;stroke-linejoin:round;stroke-miterlimit:10;stroke-opacity:0.63921571"
     d="m 42.11937,23.292739 c -0.5096,-5.35031 -5.2622,-9.54321 -11.0491,-9.54321 -6.1274,0 -11.094,4.69903 -11.094,10.49711 0,0.56221 0.047,1.11461 0.1368,1.65225 v 0 c -3.8529,0.45421 -6.845,3.81618 -6.845,7.89473 0,4.3875 3.4645,7.94546 7.7383,7.94546 h 28.367 c 3.1104,0 5.63,-2.25013 5.63,-5.0269 0,-2.50973 -2.06,-4.59092 -4.7534,-4.96616 v 0 c 0,-4.38909 -3.8567,-8.45328 -8.1306,-8.45328 -0.1372,0 0.1343,-0.007 0,0 -2.2636,0.12178 -4.2693,1.24085 -5.6085,2.93769"
     stroke-miterlimit="10"
     id="path12" /></svg>