<?xml version="1.0" encoding="UTF-8" standalone="no"?>
<svg
   xmlns:dc="http://purl.org/dc/elements/1.1/"
   xmlns:cc="http://creativecommons.org/ns#"
   xmlns:rdf="http://www.w3.org/1999/02/22-rdf-syntax-ns#"
   xmlns:svg="http://www.w3.org/2000/svg"
   xmlns="http://www.w3.org/2000/svg"
   xmlns:sodipodi="http://sodipodi.sourceforge.net/DTD/sodipodi-0.dtd"
   xmlns:inkscape="http://www.inkscape.org/namespaces/inkscape"
   enable-background="new 0 0 512 512"
   id="Layer_1"
   version="1.1"
   viewBox="0 0 60 60"
   xml:space="preserve"
   sodipodi:docname="Company.svg"
   inkscape:version="0.92.4 (5da689c313, 2019-01-14)"
   width="60"
   height="60"><metadata
     id="metadata29"><rdf:RDF><cc:Work
         rdf:about=""><dc:format>image/svg+xml</dc:format><dc:type
           rdf:resource="http://purl.org/dc/dcmitype/StillImage" /><dc:title></dc:title></cc:Work></rdf:RDF></metadata><defs
     id="defs27" /><sodipodi:namedview
     pagecolor="#ffffff"
     bordercolor="#666666"
     borderopacity="1"
     objecttolerance="10"
     gridtolerance="10"
     guidetolerance="10"
     inkscape:pageopacity="0"
     inkscape:pageshadow="2"
     inkscape:window-width="1366"
     inkscape:window-height="705"
     id="namedview25"
     showgrid="false"
     inkscape:zoom="3.6875"
     inkscape:cx="26.028632"
     inkscape:cy="51.566469"
     inkscape:window-x="-8"
     inkscape:window-y="-8"
     inkscape:window-maximized="1"
     inkscape:current-layer="Layer_1"
     showguides="true"
     inkscape:guide-bbox="true"><sodipodi:guide
       position="253.83051,416.54237"
       orientation="1,0"
       id="guide835"
       inkscape:locked="false" /><sodipodi:guide
       position="9.220339,252.20339"
       orientation="0,1"
       id="guide837"
       inkscape:locked="false" /></sodipodi:namedview><g
     id="g821"
     transform="matrix(0.74999999,0,0,0.74999999,0.01287448,15.063557)"><circle
       r="40"
       cy="20.254227"
       cx="40.051498"
       id="path825"
       style="fill:#478ac9;fill-opacity:0.63963964;stroke:#478ac9;stroke-width:0;stroke-linecap:square;stroke-linejoin:miter;stroke-miterlimit:4;stroke-dasharray:none;stroke-dashoffset:0;stroke-opacity:0.01351348;paint-order:markers stroke fill" /><g
       transform="matrix(0.23478604,0,0,0.23478604,-20.630271,-41.17743)"
       id="g833"><path
         style="opacity:0.3"
         inkscape:connector-curvature="0"
         id="path18"
         d="m 264,150.65547 -120,43.5824 3.35248,9.2688 18.14293,-6.55734 v 180.39466 h 77.15733 v -60.83837 h 42.69495 v 60.83837 h 77.20639 V 196.94933 l 18.09332,6.55734 3.3526,-9.2688 z m -10.93286,139.69972 h -60.37441 v -29.1568 h 60.37441 z m 0,-51.46186 h -60.37441 v -29.15786 h 60.37441 z m 82.24161,51.46186 h -60.37442 v -29.1568 h 60.37442 z m 0,-51.46186 h -60.37442 v -29.15786 h 60.37442 z" /><path
         style="fill:#ffffff;fill-opacity:1"
         inkscape:connector-curvature="0"
         id="path20"
         d="m 256,142.65547 -120,43.5824 3.35248,9.2688 18.14293,-6.55734 v 180.39466 h 77.15733 v -60.83837 h 42.69495 v 60.83837 h 77.20639 V 188.94933 l 18.09332,6.55734 3.3526,-9.2688 z m -10.93286,139.69972 h -60.37441 v -29.1568 h 60.37441 z m 0,-51.46186 h -60.37441 v -29.15786 h 60.37441 z m 82.24161,51.46186 h -60.37442 v -29.1568 h 60.37442 z m 0,-51.46186 h -60.37442 v -29.15786 h 60.37442 z" /></g></g></svg>