<?xml version="1.0" encoding="UTF-8" standalone="no"?>
<!-- Generator: Adobe Illustrator 16.0.0, SVG Export Plug-In . SVG Version: 6.00 Build 0)  -->

<svg
   xmlns:dc="http://purl.org/dc/elements/1.1/"
   xmlns:cc="http://creativecommons.org/ns#"
   xmlns:rdf="http://www.w3.org/1999/02/22-rdf-syntax-ns#"
   xmlns:svg="http://www.w3.org/2000/svg"
   xmlns="http://www.w3.org/2000/svg"
   xmlns:sodipodi="http://sodipodi.sourceforge.net/DTD/sodipodi-0.dtd"
   xmlns:inkscape="http://www.inkscape.org/namespaces/inkscape"
   version="1.1"
   id="Capa_1"
   x="0px"
   y="0px"
   width="64px"
   height="64px"
   viewBox="0 0 64 64"
   style="enable-background:new 0 0 64 64;"
   xml:space="preserve"
   sodipodi:docname="Localização.svg"
   inkscape:version="0.92.4 (5da689c313, 2019-01-14)"><title
   id="title5345">localização</title><metadata
   id="metadata46"><rdf:RDF><cc:Work
       rdf:about=""><dc:format>image/svg+xml</dc:format><dc:type
         rdf:resource="http://purl.org/dc/dcmitype/StillImage" /><dc:title>localização</dc:title></cc:Work></rdf:RDF></metadata><defs
   id="defs44" /><sodipodi:namedview
   pagecolor="#ffffff"
   bordercolor="#666666"
   borderopacity="1"
   objecttolerance="10"
   gridtolerance="10"
   guidetolerance="10"
   inkscape:pageopacity="0"
   inkscape:pageshadow="2"
   inkscape:window-width="1366"
   inkscape:window-height="705"
   id="namedview42"
   showgrid="false"
   inkscape:zoom="3.6875"
   inkscape:cx="54.993557"
   inkscape:cy="37.093148"
   inkscape:window-x="-8"
   inkscape:window-y="-8"
   inkscape:window-maximized="1"
   inkscape:current-layer="Capa_1" />
<g
   id="g9"
   style="fill:#478ac9;fill-opacity:1">
	<g
   id="g7"
   style="fill:#478ac9;fill-opacity:1">
		<g
   id="circle_21_"
   style="fill:#478ac9;fill-opacity:1">
			<g
   id="g4"
   style="fill:#478ac9;fill-opacity:1">
				<path
   d="M32,25c-1.104,0-2,0.896-2,2s0.896,2,2,2c1.104,0,2-0.896,2-2S33.104,25,32,25z M32,18c-4.971,0-9,4.029-9,9      s5.546,21,9,21s9-16.029,9-21S36.971,18,32,18z M32,31c-2.209,0-4-1.791-4-4s1.791-4,4-4s4,1.791,4,4S34.209,31,32,31z M32,0      C14.327,0,0,14.327,0,32s14.327,32,32,32s32-14.327,32-32S49.673,0,32,0z M32,50c-3.678,0-11-16.925-11-23s4.925-11,11-11      s11,4.925,11,11S35.68,50,32,50z"
   id="path2"
   style="fill:#478ac9;fill-opacity:1" />
			</g>
		</g>
	</g>
</g>
<g
   id="g11">
</g>
<g
   id="g13">
</g>
<g
   id="g15">
</g>
<g
   id="g17">
</g>
<g
   id="g19">
</g>
<g
   id="g21">
</g>
<g
   id="g23">
</g>
<g
   id="g25">
</g>
<g
   id="g27">
</g>
<g
   id="g29">
</g>
<g
   id="g31">
</g>
<g
   id="g33">
</g>
<g
   id="g35">
</g>
<g
   id="g37">
</g>
<g
   id="g39">
</g>
</svg>