<?xml version="1.0" encoding="UTF-8" standalone="no"?>
<svg
   xmlns:dc="http://purl.org/dc/elements/1.1/"
   xmlns:cc="http://creativecommons.org/ns#"
   xmlns:rdf="http://www.w3.org/1999/02/22-rdf-syntax-ns#"
   xmlns:svg="http://www.w3.org/2000/svg"
   xmlns="http://www.w3.org/2000/svg"
   xmlns:sodipodi="http://sodipodi.sourceforge.net/DTD/sodipodi-0.dtd"
   xmlns:inkscape="http://www.inkscape.org/namespaces/inkscape"
   viewBox="0 0 60 60"
   version="1.1"
   id="svg11"
   sodipodi:docname="management.svg"
   width="60"
   height="60"
   inkscape:version="0.92.4 (5da689c313, 2019-01-14)">
  <metadata
     id="metadata17">
    <rdf:RDF>
      <cc:Work
         rdf:about="">
        <dc:format>image/svg+xml</dc:format>
        <dc:type
           rdf:resource="http://purl.org/dc/dcmitype/StillImage" />
        <dc:title></dc:title>
      </cc:Work>
    </rdf:RDF>
  </metadata>
  <defs
     id="defs15" />
  <sodipodi:namedview
     pagecolor="#ffffff"
     bordercolor="#666666"
     borderopacity="1"
     objecttolerance="10"
     gridtolerance="10"
     guidetolerance="10"
     inkscape:pageopacity="0"
     inkscape:pageshadow="2"
     inkscape:window-width="1366"
     inkscape:window-height="705"
     id="namedview13"
     showgrid="false"
     inkscape:zoom="3.6875"
     inkscape:cx="32"
     inkscape:cy="32"
     inkscape:window-x="-8"
     inkscape:window-y="-8"
     inkscape:window-maximized="1"
     inkscape:current-layer="svg11" />
  <circle
     r="30"
     cx="31.135826"
     cy="29.96096"
     id="path2698"
     style="fill:#468aca;fill-opacity:0.73873871;stroke:#458aca;stroke-width:0;stroke-linecap:square;stroke-linejoin:miter;stroke-miterlimit:4;stroke-dasharray:none;stroke-dashoffset:0;stroke-opacity:0.63921569;paint-order:markers stroke fill" />
  <g
     style="fill:#468aca;fill-opacity:0.99549555"
     id="g14"
     transform="matrix(0.06029478,0,0,0.06029478,15.129073,8.545331)">
    <g
       style="fill:#468aca;fill-opacity:0.99549555"
       id="g12">
      <g
         style="fill:#468aca;fill-opacity:0.99549555"
         id="g10">
        <path
           id="path2"
           d="M 440,123 H 72 0 v 72 122 72 h 72 368 72 V 317 195 123 Z m 52,197 c -25.333,7.333 -41.667,23.667 -49,49 H 69 C 61.667,343.667 45.333,327.333 20,320 V 192 c 25.333,-7.334 41.667,-23.667 49,-49 h 374 c 7.334,24.667 23.668,41 49,49 z"
           style="fill:#468aca;fill-opacity:0.99549555"
           inkscape:connector-curvature="0" />
        <path
           id="path4-1"
           d="m 256,154 c -25.333,0 -47,10 -65,30 -18,20 -27,44 -27,72 0,28 9,52 27,72 18,20 39.667,30 65,30 25.333,0 47,-10 65,-30 18,-20 27,-44 27,-72 0,-28 -9,-52 -27,-72 -18,-20 -39.667,-30 -65,-30 z m 39,160 c -6,5.333 -15.667,9 -29,11 v 13 h -20 v -13 c -12.667,-2 -21.667,-5 -27,-9 -9.333,-7.333 -14,-17 -14,-29 h 25 c 0.667,0 1.167,0.667 1.5,2 0.333,1.333 0.833,3 1.5,5 0.668,2 1.334,3.333 2,4 1.333,1.334 5,2.667 11,4 v -34 c -12.667,-3.333 -21.333,-6.667 -26,-10 -8.667,-6 -13,-15 -13,-27 0,-12 4.333,-21.667 13,-29 6,-6 14.667,-9.667 26,-11 v -17 h 20 v 18 c 7.333,1.333 15.333,5 24,11 4,2.667 6.833,5 8.5,7 1.667,2 3.333,5.167 5,9.5 1.667,4.333 2.833,9.833 3.5,16.5 h -26 c -0.667,-8.668 -4.667,-14.668 -12,-18 l -3,-2 v 32 l 9,1 c 12,3.334 20,6.668 24,10 7.333,5.333 11,14 11,26 0,11.333 -5,21 -15,29 z"
           style="fill:#468aca;fill-opacity:0.99549555"
           inkscape:connector-curvature="0" />
        <path
           id="path6-1"
           d="m 278,277 c -4,-2 -8,-3.333 -12,-4 v 30 l 2.5,-0.5 c 1.667,-0.333 2.833,-0.5 3.5,-0.5 7.333,-2.667 11,-7.667 11,-15 0,-4 -1.667,-7.333 -5,-10 z"
           style="fill:#468aca;fill-opacity:0.99549555"
           inkscape:connector-curvature="0" />
        <path
           id="path8-5"
           d="m 232,229 c 0,4 2,7.333 6,10 1.333,0.667 4,1.667 8,3 v -28 c -3.333,0.667 -6,1.667 -8,3 -4,2.667 -6,6.667 -6,12 z"
           style="fill:#468aca;fill-opacity:0.99549555"
           inkscape:connector-curvature="0" />
      </g>
    </g>
  </g>
  <g
     id="Management"
     style="fill:none;fill-opacity:1;stroke-width:1.43436935;stroke-miterlimit:4;stroke-dasharray:none;stroke:#ffffff;stroke-opacity:1"
     transform="matrix(0.6971705,0,0,0.6971705,7.652133,5.0102348)">
    <path
       d="M 56,14.9531 V 3 A 1,1 0 0 0 55,2 H 45 a 1,1 0 0 0 -1,1 v 2.8076 a 48.8479,48.8479 0 0 0 -11.8115,-3.79 1.0168,1.0168 0 0 0 -0.377,0 C 5.4268,7.0918 2.043,26.6475 2.0127,26.8438 A 1,1 0 0 0 3,28 H 8 V 54 H 6 a 1,1 0 0 0 -1,1 v 6 a 1,1 0 0 0 1,1 h 52 a 1,1 0 0 0 1,-1 V 55 A 1,1 0 0 0 58,54 H 56 V 28 h 5 A 0.9993,0.9993 0 0 0 61.9873,26.8428 27.07,27.07 0 0 0 56,14.9531 Z M 57,60 H 7 V 56 H 57 Z M 55,26 a 1,1 0 0 0 -1,1 V 54 H 10 V 27 A 1,1 0 0 0 9,26 H 4.248 C 5.3516,21.8848 10.5811,8.2109 32,4.0186 A 45.5982,45.5982 0 0 1 44.5332,8.3125 1,1 0 0 0 46,7.4277 V 4 h 8 V 15.3174 A 1.0039,1.0039 0 0 0 54.2383,15.9658 27.26,27.26 0 0 1 59.7344,26 Z"
       id="path4"
       style="fill:none;fill-opacity:1;stroke-width:1.43436935;stroke-miterlimit:4;stroke-dasharray:none;stroke:#ffffff;stroke-opacity:1"
       inkscape:connector-curvature="0" />
    <path
       d="m 47,30 h -2.6426 a 13.0638,13.0638 0 0 0 -0.79,-1.91 l 1.8672,-1.8681 a 1,1 0 0 0 0,-1.4141 l -4.2422,-4.2422 a 1,1 0 0 0 -1.4141,0 L 37.91,22.4326 A 13.0638,13.0638 0 0 0 36,21.6426 V 19 a 1,1 0 0 0 -1,-1 h -6 a 1,1 0 0 0 -1,1 v 2.6426 a 13.0638,13.0638 0 0 0 -1.91,0.79 l -1.8681,-1.8672 a 1,1 0 0 0 -1.4141,0 l -4.2422,4.2422 a 1,1 0 0 0 0,1.4141 l 1.867,1.8683 A 13.0638,13.0638 0 0 0 19.6426,30 H 17 a 1,1 0 0 0 -1,1 v 6 a 1,1 0 0 0 1,1 h 2.6426 a 13.0638,13.0638 0 0 0 0.79,1.91 l -1.8672,1.8681 a 1,1 0 0 0 0,1.4141 l 4.2422,4.2422 a 1,1 0 0 0 1.4141,0 l 1.8683,-1.867 a 13.0638,13.0638 0 0 0 1.91,0.79 V 49 a 1,1 0 0 0 1,1 h 6 a 1,1 0 0 0 1,-1 v -2.6426 a 13.0638,13.0638 0 0 0 1.91,-0.79 l 1.8681,1.8672 a 1,1 0 0 0 1.4141,0 l 4.2422,-4.2422 a 1,1 0 0 0 0,-1.4141 L 43.5674,39.91 A 13.0638,13.0638 0 0 0 44.3574,38 H 47 a 1,1 0 0 0 1,-1 v -6 a 1,1 0 0 0 -1,-1 z m -1,6 h -2.3936 a 1.0009,1.0009 0 0 0 -0.9687,0.75 10.8911,10.8911 0 0 1 -1.17,2.8271 1,1 0 0 0 0.1543,1.2159 l 1.6914,1.6924 -2.8281,2.8281 -1.6923,-1.6914 A 1.0047,1.0047 0 0 0 37.5771,43.4678 10.8911,10.8911 0 0 1 34.75,44.6378 1.0009,1.0009 0 0 0 34,45.6065 V 48 h -4 v -2.3936 a 1.0009,1.0009 0 0 0 -0.75,-0.9687 10.8911,10.8911 0 0 1 -2.8271,-1.17 1.0033,1.0033 0 0 0 -1.2159,0.1543 l -1.6924,1.6914 -2.8281,-2.8281 1.6914,-1.6924 a 1,1 0 0 0 0.1543,-1.2159 10.8911,10.8911 0 0 1 -1.17,-2.8271 1.0009,1.0009 0 0 0 -0.9687,-0.75 H 18 V 32 h 2.3936 a 1.0009,1.0009 0 0 0 0.9687,-0.75 10.8911,10.8911 0 0 1 1.17,-2.8271 1,1 0 0 0 -0.1543,-1.2159 l -1.6914,-1.6924 2.8281,-2.8281 1.6924,1.6914 a 1.0036,1.0036 0 0 0 1.2159,0.1543 10.8911,10.8911 0 0 1 2.8271,-1.17 1.0009,1.0009 0 0 0 0.75,-0.9687 V 20 h 4 v 2.3936 a 1.0009,1.0009 0 0 0 0.75,0.9687 10.8911,10.8911 0 0 1 2.8271,1.17 1.005,1.005 0 0 0 1.2159,-0.1543 l 1.6924,-1.6914 2.8281,2.8281 -1.6915,1.6923 a 1,1 0 0 0 -0.1543,1.2159 10.8911,10.8911 0 0 1 1.17,2.8271 1.0009,1.0009 0 0 0 0.9687,0.75 H 46 Z"
       id="path6"
       style="fill:none;fill-opacity:1;stroke-width:1.43436935;stroke-miterlimit:4;stroke-dasharray:none;stroke:#ffffff;stroke-opacity:1"
       inkscape:connector-curvature="0" />
    <path
       d="m 32,26 a 8,8 0 1 0 8,8 8.0092,8.0092 0 0 0 -8,-8 z m 0,14 a 6,6 0 1 1 6,-6 6.0066,6.0066 0 0 1 -6,6 z"
       id="path8"
       style="fill:none;fill-opacity:1;stroke-width:1.43436935;stroke-miterlimit:4;stroke-dasharray:none;stroke:#ffffff;stroke-opacity:1"
       inkscape:connector-curvature="0" />
  </g>
</svg>
