<?xml version="1.0" encoding="UTF-8" standalone="no"?>
<svg
   xmlns:dc="http://purl.org/dc/elements/1.1/"
   xmlns:cc="http://creativecommons.org/ns#"
   xmlns:rdf="http://www.w3.org/1999/02/22-rdf-syntax-ns#"
   xmlns:svg="http://www.w3.org/2000/svg"
   xmlns="http://www.w3.org/2000/svg"
   xmlns:sodipodi="http://sodipodi.sourceforge.net/DTD/sodipodi-0.dtd"
   xmlns:inkscape="http://www.inkscape.org/namespaces/inkscape"
   version="1.1"
   viewBox="0 0 60 60"
   xml:space="preserve"
   id="svg30"
   sodipodi:docname="ROI.svg"
   width="60"
   height="60"
   inkscape:version="0.92.4 (5da689c313, 2019-01-14)"><metadata
     id="metadata36"><rdf:RDF><cc:Work
         rdf:about=""><dc:format>image/svg+xml</dc:format><dc:type
           rdf:resource="http://purl.org/dc/dcmitype/StillImage" /><dc:title /></cc:Work></rdf:RDF></metadata><defs
     id="defs34" /><sodipodi:namedview
     pagecolor="#ffffff"
     bordercolor="#666666"
     borderopacity="1"
     objecttolerance="10"
     gridtolerance="10"
     guidetolerance="10"
     inkscape:pageopacity="0"
     inkscape:pageshadow="2"
     inkscape:window-width="1366"
     inkscape:window-height="705"
     id="namedview32"
     showgrid="false"
     inkscape:zoom="5.2149125"
     inkscape:cx="7.2428111"
     inkscape:cy="25.124896"
     inkscape:window-x="-8"
     inkscape:window-y="-8"
     inkscape:window-maximized="1"
     inkscape:current-layer="g905" /><style
     type="text/css"
     id="style2">
	.st0{fill:#D5E2EB;}
	.st1{fill:none;stroke:#00A388;stroke-width:4;stroke-miterlimit:10;}
	.st2{fill:#FFFFFF;}
	.st3{fill:#CC4E47;}
	.st4{fill:#EA685E;}
	.st5{fill:#4B687F;}
	.st6{fill:#2C3E50;}
	.st7{fill:#3E5063;}
	.st8{fill:#FFAB80;}
	.st9{filter:url(#Adobe_OpacityMaskFilter);}
	.st10{mask:url(#SVGID_2_);}
	.st11{fill:#F09A79;}
	.st12{fill:#00886F;}
	.st13{fill:#00A388;}
	.st14{fill:none;stroke:#3E5063;stroke-width:4;stroke-miterlimit:10;}
	.st15{fill:#FFD766;}
	.st16{fill:#5488B7;}
	.st17{fill:#8C623B;}
	.st18{fill:#E6E6E6;stroke:#3E5063;stroke-width:16;stroke-miterlimit:10;}
	.st19{opacity:0.6;}
	.st20{fill:#E6E6E6;}
	.st21{fill:none;stroke:#D5E2EB;stroke-width:5;stroke-miterlimit:10;}
	.st22{fill:#FFEC9F;}
	.st23{fill:#603813;}
	.st24{filter:url(#Adobe_OpacityMaskFilter_1_);}
	.st25{mask:url(#SVGID_1_);}
</style><g
     id="Layer_1"
     transform="matrix(0.26921581,0,0,0.26921581,-4.543724,-4.6484167)"
     style="fill:#ffffff;fill-opacity:1;stroke:#458aca;stroke-opacity:0.63921569" /><g
     id="g905"><circle
       r="30"
       cx="30.18112"
       cy="30.388504"
       id="path2698"
       style="fill:#468aca;fill-opacity:0.73873872;stroke:#458aca;stroke-width:0;stroke-linecap:square;stroke-linejoin:miter;stroke-miterlimit:4;stroke-dasharray:none;stroke-dashoffset:0;stroke-opacity:0.63921569;paint-order:markers stroke fill" /><g
       style="fill:#ffffff;fill-opacity:1;stroke:#458aca;stroke-opacity:0.63921569;stroke-width:2.85644443;stroke-miterlimit:4;stroke-dasharray:none"
       id="g27"
       transform="matrix(0.26921581,0,0,0.26921581,-4.543724,-4.6484167)"><g
         style="fill:#ffffff;fill-opacity:1;stroke:#458aca;stroke-opacity:0.63921569;stroke-width:2.85644443;stroke-miterlimit:4;stroke-dasharray:none"
         id="g9"><path
           style="fill:#ffffff;fill-opacity:1;stroke:#458aca;stroke-opacity:0.63921569;stroke-width:2.85644443;stroke-miterlimit:4;stroke-dasharray:none"
           inkscape:connector-curvature="0"
           id="path7"
           d="M 58.17838,154.6655 H 197.86622 V 69.32594 c 0,-2.49929 -2.04488,-4.54417 -4.54417,-4.54417 H 62.72255 c -2.4993,0 -4.54417,2.04488 -4.54417,4.54417 z"
           class="st5" /></g><g
         style="fill:#ffffff;fill-opacity:1;stroke:#458aca;stroke-opacity:0.63921569;stroke-width:2.85644443;stroke-miterlimit:4;stroke-dasharray:none"
         id="g13"><path
           style="fill:#ffffff;fill-opacity:1;stroke:#458aca;stroke-opacity:0.63921569;stroke-width:2.85644443;stroke-miterlimit:4;stroke-dasharray:none"
           inkscape:connector-curvature="0"
           id="path11"
           d="m 148.40526,174.3745 c 0.73039,2.08173 -0.8455,4.07103 -2.8476,4.07103 H 136.2 119.8 110.44234 c -2.00211,0 -3.578,-1.9893 -2.8476,-4.07103 H 46 v 5.86537 c 0,6.06319 4.91518,10.97836 10.97836,10.97836 H 119.8 h 16.4 62.82164 c 6.06319,0 10.97836,-4.91518 10.97836,-10.97836 v -5.86537 z"
           class="st5" /></g><g
         style="fill:#ffffff;fill-opacity:1;stroke:#458aca;stroke-opacity:0.63921569;stroke-width:2.85644443;stroke-miterlimit:4;stroke-dasharray:none"
         id="g17"><rect
           style="fill:#ffffff;fill-opacity:1;stroke:#458aca;stroke-opacity:0.63921569;stroke-width:2.85644443;stroke-miterlimit:4;stroke-dasharray:none"
           id="rect15"
           y="73.870117"
           x="67.266724"
           width="121.51115"
           height="71.707031"
           class="st2" /></g><g
         style="fill:#ffffff;fill-opacity:1;stroke:#458aca;stroke-opacity:0.63921569;stroke-width:2.85644443;stroke-miterlimit:4;stroke-dasharray:none"
         id="g21"><polygon
           style="fill:#ffffff;fill-opacity:1;stroke:#458aca;stroke-opacity:0.63921569;stroke-width:2.85644443;stroke-miterlimit:4;stroke-dasharray:none"
           id="polygon19"
           points="46,174.3745 210,174.3745 197.86621,157.55962 58.17838,157.55962 "
           class="st7" /></g><g
         style="fill:#ffffff;fill-opacity:1;stroke:#458aca;stroke-opacity:0.63921569;stroke-width:2.85644443;stroke-miterlimit:4;stroke-dasharray:none"
         id="g25"><circle
           style="fill:#ffffff;fill-opacity:1;stroke:#458aca;stroke-opacity:0.63921569;stroke-width:2.85644443;stroke-miterlimit:4;stroke-dasharray:none"
           id="circle23"
           r="2.89412"
           cy="182.57449"
           cx="199.79562"
           class="st4" /></g></g><g
       style="fill:#468aca;fill-opacity:0.99549555"
       id="g14"
       transform="matrix(0.06029478,0,0,0.06029478,14.174367,8.972876)"><g
         style="fill:#468aca;fill-opacity:0.99549555"
         id="g12"><g
           style="fill:#468aca;fill-opacity:0.99549555"
           id="g10"><path
             id="path2"
             d="M 440,123 H 72 0 v 72 122 72 h 72 368 72 V 317 195 123 Z m 52,197 c -25.333,7.333 -41.667,23.667 -49,49 H 69 C 61.667,343.667 45.333,327.333 20,320 V 192 c 25.333,-7.334 41.667,-23.667 49,-49 h 374 c 7.334,24.667 23.668,41 49,49 z"
             style="fill:#468aca;fill-opacity:0.99549555"
             inkscape:connector-curvature="0" /><path
             id="path4"
             d="m 256,154 c -25.333,0 -47,10 -65,30 -18,20 -27,44 -27,72 0,28 9,52 27,72 18,20 39.667,30 65,30 25.333,0 47,-10 65,-30 18,-20 27,-44 27,-72 0,-28 -9,-52 -27,-72 -18,-20 -39.667,-30 -65,-30 z m 39,160 c -6,5.333 -15.667,9 -29,11 v 13 h -20 v -13 c -12.667,-2 -21.667,-5 -27,-9 -9.333,-7.333 -14,-17 -14,-29 h 25 c 0.667,0 1.167,0.667 1.5,2 0.333,1.333 0.833,3 1.5,5 0.668,2 1.334,3.333 2,4 1.333,1.334 5,2.667 11,4 v -34 c -12.667,-3.333 -21.333,-6.667 -26,-10 -8.667,-6 -13,-15 -13,-27 0,-12 4.333,-21.667 13,-29 6,-6 14.667,-9.667 26,-11 v -17 h 20 v 18 c 7.333,1.333 15.333,5 24,11 4,2.667 6.833,5 8.5,7 1.667,2 3.333,5.167 5,9.5 1.667,4.333 2.833,9.833 3.5,16.5 h -26 c -0.667,-8.668 -4.667,-14.668 -12,-18 l -3,-2 v 32 l 9,1 c 12,3.334 20,6.668 24,10 7.333,5.333 11,14 11,26 0,11.333 -5,21 -15,29 z"
             style="fill:#468aca;fill-opacity:0.99549555"
             inkscape:connector-curvature="0" /><path
             id="path6"
             d="m 278,277 c -4,-2 -8,-3.333 -12,-4 v 30 l 2.5,-0.5 c 1.667,-0.333 2.833,-0.5 3.5,-0.5 7.333,-2.667 11,-7.667 11,-15 0,-4 -1.667,-7.333 -5,-10 z"
             style="fill:#468aca;fill-opacity:0.99549555"
             inkscape:connector-curvature="0" /><path
             id="path8"
             d="m 232,229 c 0,4 2,7.333 6,10 1.333,0.667 4,1.667 8,3 v -28 c -3.333,0.667 -6,1.667 -8,3 -4,2.667 -6,6.667 -6,12 z"
             style="fill:#468aca;fill-opacity:0.99549555"
             inkscape:connector-curvature="0" /></g></g></g></g></svg>